<svg width="12" height="16" viewBox="0 0 12 16" fill="none" xmlns="http://www.w3.org/2000/svg">
<path d="M12 16H0V0H12V16Z" stroke="#E5E7EB"/>
<path d="M12 15H0V0H12V15Z" stroke="#E5E7EB"/>
<g clip-path="url(#clip0_39_235)">
<path d="M6 13.5C7.5913 13.5 9.11742 12.8679 10.2426 11.7426C11.3679 10.6174 12 9.0913 12 7.5C12 5.9087 11.3679 4.38258 10.2426 3.25736C9.11742 2.13214 7.5913 1.5 6 1.5C4.4087 1.5 2.88258 2.13214 1.75736 3.25736C0.632141 4.38258 0 5.9087 0 7.5C0 9.0913 0.632141 10.6174 1.75736 11.7426C2.88258 12.8679 4.4087 13.5 6 13.5ZM5.0625 9.375H5.625V7.875H5.0625C4.75078 7.875 4.5 7.62422 4.5 7.3125C4.5 7.00078 4.75078 6.75 5.0625 6.75H6.1875C6.49922 6.75 6.75 7.00078 6.75 7.3125V9.375H6.9375C7.24922 9.375 7.5 9.62578 7.5 9.9375C7.5 10.2492 7.24922 10.5 6.9375 10.5H5.0625C4.75078 10.5 4.5 10.2492 4.5 9.9375C4.5 9.62578 4.75078 9.375 5.0625 9.375ZM6 4.5C6.19891 4.5 6.38968 4.57902 6.53033 4.71967C6.67098 4.86032 6.75 5.05109 6.75 5.25C6.75 5.44891 6.67098 5.63968 6.53033 5.78033C6.38968 5.92098 6.19891 6 6 6C5.80109 6 5.61032 5.92098 5.46967 5.78033C5.32902 5.63968 5.25 5.44891 5.25 5.25C5.25 5.05109 5.32902 4.86032 5.46967 4.71967C5.61032 4.57902 5.80109 4.5 6 4.5Z" fill="#9CA3AF"/>
</g>
<defs>
<clipPath id="clip0_39_235">
<path d="M0 1.5H12V13.5H0V1.5Z" fill="white"/>
</clipPath>
</defs>
</svg>
