<svg width="16" height="24" viewBox="0 0 16 24" fill="none" xmlns="http://www.w3.org/2000/svg">
<path d="M15.75 24H0V0H15.75V24Z" stroke="#E5E7EB"/>
<path d="M15.75 21H0V4H15.75V21Z" stroke="#E5E7EB"/>
<g clip-path="url(#clip0_39_160)">
<path d="M7.87505 6.625C5.66567 6.625 3.89653 7.63125 2.60864 8.82891C1.32896 10.0156 0.473096 11.4375 0.0684082 12.4137C-0.0218262 12.6297 -0.0218262 12.8703 0.0684082 13.0863C0.473096 14.0625 1.32896 15.4844 2.60864 16.6711C3.89653 17.8687 5.66567 18.875 7.87505 18.875C10.0844 18.875 11.8536 17.8687 13.1415 16.6711C14.4211 15.4816 15.277 14.0625 15.6844 13.0863C15.7747 12.8703 15.7747 12.6297 15.6844 12.4137C15.277 11.4375 14.4211 10.0156 13.1415 8.82891C11.8536 7.63125 10.0844 6.625 7.87505 6.625ZM3.93755 12.75C3.93755 11.7057 4.35239 10.7042 5.09082 9.96577C5.82924 9.22734 6.83076 8.8125 7.87505 8.8125C8.91934 8.8125 9.92086 9.22734 10.6593 9.96577C11.3977 10.7042 11.8125 11.7057 11.8125 12.75C11.8125 13.7943 11.3977 14.7958 10.6593 15.5342C9.92086 16.2727 8.91934 16.6875 7.87505 16.6875C6.83076 16.6875 5.82924 16.2727 5.09082 15.5342C4.35239 14.7958 3.93755 13.7943 3.93755 12.75ZM7.87505 11C7.87505 11.9652 7.09028 12.75 6.12505 12.75C5.93091 12.75 5.74497 12.7172 5.56997 12.6598C5.41958 12.6105 5.24458 12.7035 5.25005 12.8621C5.25825 13.0508 5.2856 13.2395 5.33755 13.4281C5.71216 14.8281 7.15317 15.6594 8.55317 15.2848C9.95317 14.9102 10.7844 13.4691 10.4098 12.0691C10.1063 10.9344 9.10278 10.1715 7.98716 10.125C7.82856 10.1195 7.7356 10.2918 7.78481 10.4449C7.84224 10.6199 7.87505 10.8059 7.87505 11Z" fill="#9CA3AF"/>
</g>
<defs>
<clipPath id="clip0_39_160">
<path d="M0 5.75H15.75V19.75H0V5.75Z" fill="white"/>
</clipPath>
</defs>
</svg>
