<svg width="34" height="42" viewBox="0 0 34 42" fill="none" xmlns="http://www.w3.org/2000/svg">
<path d="M0 8C0 3.58172 3.58172 0 8 0H26C30.4183 0 34 3.58172 34 8V34C34 38.4183 30.4183 42 26 42H8C3.58172 42 0 38.4183 0 34V8Z" fill="#1E1E1E" fill-opacity="0.65"/>
<path d="M8 0.5H26C30.1421 0.5 33.5 3.85786 33.5 8V34C33.5 38.1421 30.1421 41.5 26 41.5H8C3.85786 41.5 0.5 38.1421 0.5 34V8C0.5 3.85786 3.85786 0.5 8 0.5Z" stroke="white" stroke-opacity="0.1"/>
<path d="M25 31H9V11H25V31Z" stroke="#E5E7EB"/>
<g clip-path="url(#clip0_39_209)">
<path d="M17 29C19.1217 29 21.1566 28.1571 22.6569 26.6569C24.1571 25.1566 25 23.1217 25 21C25 18.8783 24.1571 16.8434 22.6569 15.3431C21.1566 13.8429 19.1217 13 17 13C14.8783 13 12.8434 13.8429 11.3431 15.3431C9.84285 16.8434 9 18.8783 9 21C9 23.1217 9.84285 25.1566 11.3431 26.6569C12.8434 28.1571 14.8783 29 17 29ZM14.3063 18.1656C14.5531 17.4688 15.2156 17 15.9563 17H17.7781C18.8687 17 19.75 17.8844 19.75 18.9719C19.75 19.6781 19.3719 20.3312 18.7594 20.6844L17.75 21.2625C17.7437 21.6687 17.4094 22 17 22C16.5844 22 16.25 21.6656 16.25 21.25V20.8281C16.25 20.5594 16.3938 20.3125 16.6281 20.1781L18.0125 19.3844C18.1594 19.3 18.25 19.1437 18.25 18.975C18.25 18.7125 18.0375 18.5031 17.7781 18.5031H15.9563C15.85 18.5031 15.7563 18.5687 15.7219 18.6687L15.7094 18.7063C15.5719 19.0969 15.1406 19.3 14.7531 19.1625C14.3656 19.025 14.1594 18.5938 14.2969 18.2063L14.3094 18.1687L14.3063 18.1656ZM16 24C16 23.7348 16.1054 23.4804 16.2929 23.2929C16.4804 23.1054 16.7348 23 17 23C17.2652 23 17.5196 23.1054 17.7071 23.2929C17.8946 23.4804 18 23.7348 18 24C18 24.2652 17.8946 24.5196 17.7071 24.7071C17.5196 24.8946 17.2652 25 17 25C16.7348 25 16.4804 24.8946 16.2929 24.7071C16.1054 24.5196 16 24.2652 16 24Z" fill="#9CA3AF"/>
</g>
<defs>
<clipPath id="clip0_39_209">
<path d="M9 13H25V29H9V13Z" fill="white"/>
</clipPath>
</defs>
</svg>
