<svg width="32" height="32" viewBox="0 0 32 32" fill="none" xmlns="http://www.w3.org/2000/svg">
<path d="M24 0C28.4183 0 32 3.58172 32 8V24C32 28.4183 28.4183 32 24 32H8C3.58172 32 0 28.4183 0 24V8C0 3.58172 3.58172 0 8 0H24Z" fill="white" fill-opacity="0.2"/>
<path d="M24 0C28.4183 0 32 3.58172 32 8V24C32 28.4183 28.4183 32 24 32H8C3.58172 32 0 28.4183 0 24V8C0 3.58172 3.58172 0 8 0H24Z" stroke="#E5E7EB"/>
<path d="M23 26H9V6H23V26Z" stroke="#E5E7EB"/>
<g clip-path="url(#clip0_39_124)">
<path d="M18.1875 18.375C20.8453 18.375 23 16.2203 23 13.5625C23 10.9047 20.8453 8.75 18.1875 8.75C15.5297 8.75 13.375 10.9047 13.375 13.5625C13.375 14.0738 13.4543 14.5687 13.602 15.0309L9.19141 19.4414C9.06836 19.5645 9 19.7312 9 19.9062V22.0938C9 22.4574 9.29258 22.75 9.65625 22.75H11.8438C12.2074 22.75 12.5 22.4574 12.5 22.0938V21H13.5938C13.9574 21 14.25 20.7074 14.25 20.3438V19.25H15.3438C15.5188 19.25 15.6855 19.1816 15.8086 19.0586L16.7191 18.148C17.1812 18.2957 17.6762 18.375 18.1875 18.375ZM19.2812 11.375C19.5713 11.375 19.8495 11.4902 20.0546 11.6954C20.2598 11.9005 20.375 12.1787 20.375 12.4688C20.375 12.7588 20.2598 13.037 20.0546 13.2421C19.8495 13.4473 19.5713 13.5625 19.2812 13.5625C18.9912 13.5625 18.713 13.4473 18.5079 13.2421C18.3027 13.037 18.1875 12.7588 18.1875 12.4688C18.1875 12.1787 18.3027 11.9005 18.5079 11.6954C18.713 11.4902 18.9912 11.375 19.2812 11.375Z" fill="white"/>
</g>
<defs>
<clipPath id="clip0_39_124">
<path d="M9 8.75H23V22.75H9V8.75Z" fill="white"/>
</clipPath>
</defs>
</svg>
