<svg width="16" height="21" viewBox="0 0 16 21" fill="none" xmlns="http://www.w3.org/2000/svg">
<path d="M15.75 21H0V0H15.75V21Z" stroke="#E5E7EB"/>
<g clip-path="url(#clip0_39_173)">
<path d="M15.4195 11.0445C15.859 10.6051 15.859 9.8914 15.4195 9.45195L9.79453 3.82695C9.35508 3.3875 8.64141 3.3875 8.20195 3.82695C7.7625 4.2664 7.7625 4.98007 8.20195 5.41953L11.9109 9.125H1.125C0.502734 9.125 0 9.62773 0 10.25C0 10.8723 0.502734 11.375 1.125 11.375H11.9074L8.20547 15.0805C7.76602 15.5199 7.76602 16.2336 8.20547 16.673C8.64492 17.1125 9.35859 17.1125 9.79805 16.673L15.423 11.048L15.4195 11.0445Z" fill="#0A0A0B"/>
</g>
<defs>
<clipPath id="clip0_39_173">
<path d="M0 1.25H15.75V19.25H0V1.25Z" fill="white"/>
</clipPath>
</defs>
</svg>
