<svg width="16" height="24" viewBox="0 0 16 24" fill="none" xmlns="http://www.w3.org/2000/svg">
<path d="M16 24H0V0H16V24Z" stroke="#E5E7EB"/>
<g clip-path="url(#clip0_39_189)">
<path d="M1.5 12C1.5 8.40938 4.40938 5.5 8 5.5C9.97188 5.5 11.7375 6.37812 12.9312 7.76562C13.2 8.08125 13.675 8.11562 13.9875 7.84687C14.3 7.57812 14.3375 7.10313 14.0688 6.79063C12.6031 5.08125 10.4281 4 8 4C3.58125 4 0 7.58125 0 12V13.25C0 13.6656 0.334375 14 0.75 14C1.16562 14 1.5 13.6656 1.5 13.25V12ZM15.8281 10.3469C15.7437 9.94063 15.3438 9.68125 14.9406 9.76875C14.5375 9.85625 14.275 10.2531 14.3625 10.6562C14.4531 11.0906 14.5031 11.5406 14.5031 12.0031V13.2531C14.5031 13.6687 14.8375 14.0031 15.2531 14.0031C15.6687 14.0031 16.0031 13.6687 16.0031 13.2531V12C16.0031 11.4344 15.9438 10.8813 15.8313 10.3469H15.8281ZM8 6.5C7.40625 6.5 6.83125 6.59375 6.29688 6.76875C5.82188 6.925 5.7125 7.50938 6.0375 7.89062C6.25938 8.15 6.625 8.22812 6.95625 8.1375C7.2875 8.04688 7.6375 8 8 8C10.2094 8 12 9.79063 12 12V12.7781C12 13.5656 11.9531 14.35 11.8625 15.1313C11.8094 15.5875 12.1562 16 12.6187 16C12.9875 16 13.3031 15.7313 13.3469 15.3656C13.45 14.5094 13.5031 13.6469 13.5031 12.7812V12C13.5031 8.9625 11.0406 6.5 8.00313 6.5H8ZM4.70937 8.64687C4.425 8.31562 3.91875 8.29063 3.65 8.63438C2.92813 9.5625 2.5 10.7312 2.5 12V12.7781C2.5 13.5344 2.41875 14.2906 2.25625 15.025C2.15 15.5125 2.50312 16 3.00312 16C3.33125 16 3.625 15.7812 3.69688 15.4594C3.89688 14.5813 4 13.6844 4 12.7781V12C4 11.15 4.26562 10.3625 4.71562 9.71562C4.94062 9.39062 4.96562 8.94688 4.70937 8.64687ZM8 9C6.34375 9 5 10.3438 5 12V12.7781C5 13.9 4.85625 15.0125 4.56875 16.0938C4.45 16.5406 4.77812 17 5.24062 17C5.5375 17 5.8 16.8063 5.87813 16.5188C6.20625 15.3 6.375 14.0437 6.375 12.7781V12C6.375 11.1031 7.10313 10.375 8 10.375C8.89688 10.375 9.625 11.1031 9.625 12V12.7781C9.625 13.9125 9.51562 15.0406 9.3 16.15C9.21562 16.5844 9.54062 17 9.98125 17C10.3 17 10.575 16.7812 10.6375 16.4688C10.8781 15.2563 11 14.0219 11 12.7781V12C11 10.3438 9.65625 9 8 9ZM8.75 12C8.75 11.5844 8.41562 11.25 8 11.25C7.58437 11.25 7.25 11.5844 7.25 12V12.7781C7.25 14.65 6.90625 16.5063 6.23438 18.2531L6.05 18.7312C5.9 19.1187 6.09375 19.5531 6.48125 19.7C6.86875 19.8469 7.30312 19.6562 7.45 19.2688L7.63438 18.7906C8.37187 16.8719 8.75 14.8344 8.75 12.7781V12Z" fill="white"/>
</g>
<defs>
<clipPath id="clip0_39_189">
<path d="M0 4H16V20H0V4Z" fill="white"/>
</clipPath>
</defs>
</svg>
